<?xml version="1.0" standalone="no"?>
<!DOCTYPE svg PUBLIC "-//W3C//DTD SVG 20010904//EN"
 "http://www.w3.org/TR/2001/REC-SVG-20010904/DTD/svg10.dtd">
<svg version="1.0" xmlns="http://www.w3.org/2000/svg"
 width="232.000000pt" height="232.000000pt" viewBox="0 0 232.000000 232.000000"
 preserveAspectRatio="xMidYMid meet">
<metadata>
Created by potrace 1.14, written by Peter Selinger 2001-2017
</metadata>
<g transform="translate(0.000000,232.000000) scale(0.100000,-0.100000)"
fill="#000000" stroke="none">
<path d="M614 2310 c-21 -8 -88 -109 -133 -204 -51 -105 -121 -315 -121 -362
0 -24 -8 -46 -25 -66 -25 -29 -29 -50 -26 -118 2 -41 45 -172 71 -215 16 -27
17 -54 16 -250 -2 -355 12 -491 65 -602 28 -57 48 -64 39 -12 -5 26 -3 42 4
46 6 3 8 3 4 -1 -3 -4 13 -27 36 -51 40 -40 109 -79 197 -110 l37 -13 -44 44
c-57 57 -57 68 2 60 26 -3 66 -6 90 -6 37 0 49 -6 84 -39 33 -31 41 -45 38
-68 -3 -29 2 -25 -319 -228 -61 -38 -122 -79 -136 -90 l-24 -20 914 1 c502 0
918 3 923 6 11 7 11 398 0 416 -18 29 -52 14 -164 -70 -69 -52 -99 -59 -127
-28 -25 28 -76 35 -146 20 -53 -11 -70 -10 -167 10 -181 38 -182 39 -231 110
-42 62 -43 64 -31 103 15 51 38 87 55 87 8 0 17 9 20 20 4 11 11 18 16 15 12
-8 11 -81 -2 -128 -6 -22 -8 -42 -4 -45 3 -3 32 22 65 56 32 34 62 62 66 62 3
0 4 -18 1 -40 -10 -73 25 -16 38 63 5 29 10 37 28 37 20 1 20 2 5 11 -21 12
-23 38 -4 64 13 18 15 17 57 -13 23 -18 46 -32 50 -32 4 0 1 22 -6 50 -18 70
-11 93 29 87 17 -2 42 1 56 8 71 35 148 55 208 52 35 -2 93 2 130 8 l66 11 0
219 0 219 -25 6 c-32 8 -73 -3 -100 -29 -36 -34 -57 -35 -94 -7 -33 25 -125
128 -125 139 0 4 23 16 50 28 61 26 105 74 120 131 21 76 -5 135 -88 198 -37
29 -56 36 -106 40 -59 5 -61 6 -71 41 -5 19 -17 46 -26 60 -8 13 -30 55 -48
94 -36 77 -120 224 -130 226 -25 4 -1045 3 -1057 -1z m-124 -1760 c0 -20 -2
-22 -10 -10 -5 8 -10 26 -10 40 0 20 2 22 10 10 5 -8 10 -26 10 -40z"/>
</g>
</svg>
